<svg width="404" height="155" viewBox="0 0 404 155" fill="none" xmlns="http://www.w3.org/2000/svg">
<path d="M1.53857 125.295V97.8804L61.1266 3.98839H85.4874V41.2043H71.3539L36.4818 96.46V97.5964H122.774V125.295H1.53857ZM71.7801 149.443V116.915L72.4903 104.912V3.98839H105.374V149.443H71.7801ZM201.361 152.994C188.672 152.994 177.734 149.987 168.549 143.974C159.363 137.914 152.284 129.225 147.313 117.909C142.341 106.545 139.879 92.8852 139.926 76.9287C139.974 60.9723 142.46 47.4306 147.384 36.3037C152.355 25.1295 159.41 16.6304 168.549 10.8066C177.734 4.93536 188.672 1.99976 201.361 1.99976C214.05 1.99976 224.988 4.93536 234.174 10.8066C243.406 16.6304 250.509 25.1295 255.48 36.3037C260.452 47.478 262.914 61.0196 262.867 76.9287C262.867 92.9325 260.381 106.616 255.409 117.98C250.438 129.344 243.359 138.032 234.174 144.045C225.035 150.011 214.098 152.994 201.361 152.994ZM201.361 124.23C208.937 124.23 215.068 120.371 219.756 112.653C224.443 104.888 226.763 92.9799 226.716 76.9287C226.716 66.4174 225.651 57.7526 223.52 50.9344C221.389 44.0689 218.43 38.9552 214.642 35.5935C210.854 32.2318 206.427 30.5509 201.361 30.5509C193.833 30.5509 187.748 34.3624 183.108 41.9856C178.468 49.5613 176.124 61.209 176.077 76.9287C176.03 87.5821 177.048 96.4126 179.131 103.42C181.262 110.428 184.245 115.66 188.08 119.116C191.915 122.525 196.342 124.23 201.361 124.23ZM281.226 125.295V97.8804L340.814 3.98839H365.175V41.2043H351.041L316.169 96.46V97.5964H402.462V125.295H281.226ZM351.468 149.443V116.915L352.178 104.912V3.98839H385.061V149.443H351.468Z" stroke="#8C10B8" stroke-width="3"/>
</svg>
