<svg width="11" height="13" viewBox="0 0 11 13" fill="none" xmlns="http://www.w3.org/2000/svg">
<path fill-rule="evenodd" clip-rule="evenodd" d="M6.48296 1.37807H3.76106C3.67474 1.79979 3.46646 2.18687 3.16208 2.49125C2.8577 2.79564 2.47062 3.00392 2.0489 3.09023C2.04873 3.21706 2.04873 3.34389 2.0489 3.47071C2.47062 3.55703 2.8577 3.76531 3.16208 4.06969C3.46646 4.37407 3.67474 4.76116 3.76106 5.18288H6.48296C6.56928 4.76116 6.77756 4.37407 7.08194 4.06969C7.38632 3.76531 7.7734 3.55703 8.19512 3.47071C8.19524 3.34389 8.19524 3.21706 8.19512 3.09023C7.7734 3.00392 7.38632 2.79564 7.08194 2.49125C6.77756 2.18687 6.56928 1.79979 6.48296 1.37807ZM6.8371 0.501794C6.67613 0.500038 6.5052 0.500038 6.32316 0.500038H3.92086C3.7394 0.500038 3.56789 0.500038 3.40751 0.501794C3.37554 0.498914 3.34335 0.499503 3.31151 0.50355C3.04693 0.508233 2.8122 0.519354 2.6085 0.546866C2.24089 0.596036 1.909 0.704912 1.64266 0.971248C1.37574 1.23817 1.26686 1.57007 1.21769 1.93708C1.19018 2.14137 1.17906 2.3761 1.17438 2.64068C1.17037 2.67233 1.16978 2.70432 1.17262 2.73609C1.17087 2.89707 1.17087 3.06857 1.17087 3.25003V3.31091C1.17087 3.49237 1.17087 3.66388 1.17262 3.82485C1.16978 3.85663 1.17037 3.88862 1.17438 3.92027C1.17906 4.18543 1.19018 4.41957 1.21769 4.62328C1.26686 4.99088 1.37574 5.32278 1.64266 5.58911C1.909 5.85603 2.24089 5.96491 2.6085 6.01408C2.8122 6.04159 3.04693 6.05271 3.31151 6.0574C3.34335 6.0615 3.37554 6.06209 3.40751 6.05915C3.56789 6.06091 3.7394 6.06091 3.92086 6.06091H6.32316C6.50462 6.06091 6.67613 6.06091 6.8371 6.05915C6.86887 6.06205 6.90087 6.06146 6.93251 6.0574C7.19768 6.05271 7.4324 6.04159 7.63552 6.01408C8.00313 5.96491 8.33502 5.85603 8.60136 5.58911C8.86828 5.32278 8.97716 4.99088 9.02633 4.62328C9.05406 4.38995 9.06853 4.15523 9.06964 3.92027C9.07362 3.88861 9.0742 3.85663 9.0714 3.82485C9.07315 3.66388 9.07315 3.49237 9.07315 3.31091V3.25003C9.07315 3.06857 9.07315 2.89707 9.0714 2.73609C9.0743 2.70432 9.07371 2.67232 9.06964 2.64068C9.06842 2.40572 9.05396 2.17101 9.02633 1.93767C8.97716 1.57007 8.86828 1.23817 8.60194 0.971834C8.33502 0.704912 8.00313 0.596036 7.63611 0.546866C7.40258 0.519193 7.16767 0.504731 6.93251 0.50355C6.90086 0.499527 6.86887 0.498938 6.8371 0.501794ZM7.40138 1.40383C7.46766 1.57895 7.5704 1.73798 7.70281 1.87039C7.83521 2.00279 7.99424 2.10553 8.16937 2.17181C8.16568 2.1327 8.16119 2.09367 8.1559 2.05474C8.1202 1.78431 8.05698 1.66841 7.9803 1.59231C7.9042 1.51621 7.78889 1.45358 7.51904 1.4167C7.4801 1.41162 7.44107 1.40733 7.40197 1.40383H7.40138ZM8.16937 4.38913C7.99424 4.45541 7.83521 4.55816 7.70281 4.69056C7.5704 4.82296 7.46766 4.982 7.40138 5.15712C7.44236 5.15361 7.48157 5.14892 7.51845 5.14424C7.78889 5.10736 7.90479 5.04473 7.98088 4.96864C8.05698 4.89254 8.1202 4.77664 8.15649 4.50621C8.16117 4.46933 8.16585 4.43011 8.16937 4.38913ZM2.84264 5.15712C2.77636 4.982 2.67362 4.82296 2.54121 4.69056C2.40881 4.55816 2.24978 4.45541 2.07465 4.38913C2.07875 4.43011 2.08285 4.46933 2.08812 4.50621C2.12441 4.77664 2.18704 4.89254 2.26372 4.96864C2.33982 5.04473 2.45513 5.10736 2.72498 5.14424C2.76244 5.14892 2.80166 5.15361 2.84264 5.15712ZM2.07465 2.17181C2.24978 2.10553 2.40881 2.00279 2.54121 1.87039C2.67362 1.73798 2.77636 1.57895 2.84264 1.40383C2.80166 1.40734 2.76244 1.41202 2.72557 1.41729C2.45513 1.45358 2.33923 1.51621 2.26314 1.5929C2.18704 1.66899 2.12441 1.78431 2.08753 2.05415L2.07465 2.17181ZM5.12201 3.13413C5.0832 3.13413 5.04598 3.14955 5.01853 3.177C4.99109 3.20444 4.97567 3.24166 4.97567 3.28047C4.97567 3.31928 4.99109 3.35651 5.01853 3.38395C5.04598 3.41139 5.0832 3.42681 5.12201 3.42681C5.16082 3.42681 5.19804 3.41139 5.22549 3.38395C5.25293 3.35651 5.26835 3.31928 5.26835 3.28047C5.26835 3.24166 5.25293 3.20444 5.22549 3.177C5.19804 3.14955 5.16082 3.13413 5.12201 3.13413ZM4.09764 3.28047C4.09764 3.00879 4.20556 2.74824 4.39767 2.55613C4.58978 2.36403 4.85033 2.2561 5.12201 2.2561C5.39369 2.2561 5.65424 2.36403 5.84635 2.55613C6.03846 2.74824 6.14638 3.00879 6.14638 3.28047C6.14638 3.55215 6.03846 3.81271 5.84635 4.00481C5.65424 4.19692 5.39369 4.30484 5.12201 4.30484C4.85033 4.30484 4.58978 4.19692 4.39767 4.00481C4.20556 3.81271 4.09764 3.55215 4.09764 3.28047ZM3.18097 7.64019C4.27325 7.42888 5.4422 7.47629 6.38872 8.04058C6.52101 8.1196 6.64627 8.21852 6.75456 8.34028C6.97466 8.58788 7.08822 8.89461 7.09348 9.20251C7.20529 9.13051 7.31768 9.05031 7.43123 8.96427L8.48956 8.16526C8.75453 7.97054 9.07476 7.86554 9.40359 7.86554C9.73241 7.86554 10.0526 7.97054 10.3176 8.16526C10.807 8.53403 11.0025 9.19724 10.6519 9.75918C10.4031 10.1578 10.0279 10.7098 9.6468 11.0633C9.26047 11.4204 8.71199 11.7213 8.29697 11.9215C7.7924 12.165 7.24802 12.2996 6.71827 12.3851C5.63537 12.5607 4.50914 12.5338 3.43911 12.3131C2.88731 12.1995 2.32544 12.1421 1.76207 12.1416H0.439172C0.322738 12.1416 0.211072 12.0953 0.128741 12.013C0.0464094 11.9307 0.000156125 11.819 0.000156125 11.7026C0.000156125 11.5861 0.0464094 11.4745 0.128741 11.3921C0.211072 11.3098 0.322738 11.2635 0.439172 11.2635H1.76207C2.38372 11.2635 3.01181 11.3285 3.61648 11.4532C4.59178 11.6533 5.59524 11.6753 6.57837 11.5182C7.06305 11.4397 7.51611 11.3232 7.91532 11.1307C8.31512 10.9375 8.76467 10.6835 9.04974 10.4195C9.33832 10.152 9.66085 9.68894 9.90728 9.29441C9.98162 9.17499 9.97109 9.00349 9.78904 8.86593C9.57246 8.70203 9.23471 8.70203 9.01872 8.86593L7.96098 9.66494C7.53835 9.98395 7.01856 10.3252 6.37408 10.4282C6.30657 10.4389 6.23885 10.4483 6.17097 10.4563C5.76082 10.5037 5.34683 10.5076 4.93587 10.468C4.87745 10.464 4.82043 10.4483 4.76816 10.4219C4.7159 10.3955 4.66944 10.3589 4.63153 10.3143C4.59362 10.2697 4.56502 10.2179 4.54742 10.162C4.52982 10.1062 4.52357 10.0474 4.52903 9.98908C4.5345 9.93078 4.55158 9.87416 4.57925 9.82256C4.60693 9.77096 4.64466 9.72541 4.6902 9.68861C4.73575 9.6518 4.7882 9.62448 4.84446 9.60825C4.90072 9.59202 4.95967 9.58721 5.01782 9.59411C5.34254 9.62565 5.66958 9.62506 5.99419 9.59235L6.01175 9.5906C6.06636 9.5567 6.11277 9.51111 6.14763 9.45711C6.18249 9.4031 6.20493 9.34204 6.21333 9.27831C6.22173 9.21459 6.21588 9.14979 6.19621 9.0886C6.17653 9.02741 6.14352 8.97135 6.09955 8.92446C6.05291 8.87311 5.99861 8.82928 5.93858 8.79451C5.24728 8.38184 4.32359 8.31335 3.3478 8.50184C2.3947 8.69358 1.49115 9.0791 0.693216 9.6345C0.646172 9.66786 0.593017 9.69163 0.536787 9.70445C0.480556 9.71727 0.422352 9.71888 0.365496 9.70921C0.308641 9.69953 0.254248 9.67875 0.205423 9.64806C0.156598 9.61736 0.114297 9.57735 0.0809351 9.5303C0.0475736 9.48326 0.0238047 9.43011 0.0109858 9.37388C-0.00183313 9.31765 -0.0034512 9.25944 0.00622403 9.20258C0.0158993 9.14573 0.0366784 9.09134 0.0673748 9.04251C0.0980712 8.99369 0.138084 8.95139 0.185128 8.91802C1.0852 8.29051 2.10508 7.85549 3.18097 7.64019Z" fill="#8C10B8" fill-opacity="0.35"/>
</svg>
