<svg width="12" height="13" viewBox="0 0 12 13" fill="none" xmlns="http://www.w3.org/2000/svg">
<path fill-rule="evenodd" clip-rule="evenodd" d="M7.09136 1.62807H4.36946C4.28314 2.04979 4.07486 2.43687 3.77048 2.74125C3.4661 3.04564 3.07902 3.25392 2.6573 3.34023C2.65713 3.46706 2.65713 3.59389 2.6573 3.72071C3.07902 3.80703 3.4661 4.01531 3.77048 4.31969C4.07486 4.62407 4.28314 5.01116 4.36946 5.43288H7.09136C7.17767 5.01116 7.38595 4.62407 7.69034 4.31969C7.99472 4.01531 8.3818 3.80703 8.80352 3.72071C8.80364 3.59389 8.80364 3.46706 8.80352 3.34023C8.3818 3.25392 7.99472 3.04564 7.69034 2.74125C7.38595 2.43687 7.17767 2.04979 7.09136 1.62807ZM7.4455 0.751794C7.28452 0.750038 7.1136 0.750038 6.93156 0.750038H4.52926C4.3478 0.750038 4.17629 0.750038 4.0159 0.751794C3.98394 0.748914 3.95175 0.749503 3.91991 0.75355C3.65533 0.758233 3.4206 0.769354 3.21689 0.796866C2.84929 0.846036 2.5174 0.954912 2.25106 1.22125C1.98414 1.48817 1.87526 1.82007 1.82609 2.18708C1.79858 2.39137 1.78746 2.6261 1.78278 2.89068C1.77877 2.92233 1.77818 2.95432 1.78102 2.98609C1.77926 3.14707 1.77926 3.31857 1.77926 3.50003V3.56091C1.77926 3.74237 1.77926 3.91388 1.78102 4.07485C1.77818 4.10663 1.77877 4.13862 1.78278 4.17027C1.78746 4.43543 1.79858 4.66957 1.82609 4.87328C1.87526 5.24088 1.98414 5.57278 2.25106 5.83911C2.5174 6.10603 2.84929 6.21491 3.21689 6.26408C3.4206 6.29159 3.65533 6.30271 3.91991 6.3074C3.95174 6.3115 3.98394 6.31209 4.0159 6.30915C4.17629 6.31091 4.3478 6.31091 4.52926 6.31091H6.93156C7.11302 6.31091 7.28452 6.31091 7.4455 6.30915C7.47727 6.31205 7.50927 6.31146 7.54091 6.3074C7.80608 6.30271 8.0408 6.29159 8.24392 6.26408C8.61152 6.21491 8.94342 6.10603 9.20976 5.83911C9.47668 5.57278 9.58555 5.24088 9.63472 4.87328C9.66246 4.63995 9.67692 4.40523 9.67804 4.17027C9.68201 4.13861 9.6826 4.10663 9.6798 4.07485C9.68155 3.91388 9.68155 3.74237 9.68155 3.56091V3.50003C9.68155 3.31857 9.68155 3.14707 9.6798 2.98609C9.6827 2.95432 9.68211 2.92232 9.67804 2.89068C9.67682 2.65572 9.66236 2.42101 9.63472 2.18767C9.58555 1.82007 9.47668 1.48817 9.21034 1.22183C8.94342 0.954912 8.61152 0.846036 8.24451 0.796866C8.01098 0.769193 7.77607 0.754731 7.54091 0.75355C7.50926 0.749527 7.47727 0.748938 7.4455 0.751794ZM8.00978 1.65383C8.07606 1.82895 8.1788 1.98798 8.3112 2.12039C8.44361 2.25279 8.60264 2.35553 8.77776 2.42181C8.77408 2.3827 8.76959 2.34367 8.7643 2.30474C8.7286 2.03431 8.66538 1.91841 8.5887 1.84231C8.5126 1.76621 8.39728 1.70358 8.12744 1.6667C8.0885 1.66162 8.04947 1.65733 8.01037 1.65383H8.00978ZM8.77776 4.63913C8.60264 4.70541 8.44361 4.80816 8.3112 4.94056C8.1788 5.07296 8.07606 5.232 8.00978 5.40712C8.05075 5.40361 8.08997 5.39892 8.12685 5.39424C8.39728 5.35736 8.51319 5.29473 8.58928 5.21864C8.66538 5.14254 8.72859 5.02664 8.76489 4.75621C8.76957 4.71933 8.77425 4.68011 8.77776 4.63913ZM3.45104 5.40712C3.38476 5.232 3.28201 5.07296 3.14961 4.94056C3.01721 4.80816 2.85818 4.70541 2.68305 4.63913C2.68715 4.68011 2.69125 4.71933 2.69651 4.75621C2.73281 5.02664 2.79544 5.14254 2.87212 5.21864C2.94822 5.29473 3.06353 5.35736 3.33338 5.39424C3.37084 5.39892 3.41006 5.40361 3.45104 5.40712ZM2.68305 2.42181C2.85818 2.35553 3.01721 2.25279 3.14961 2.12039C3.28201 1.98798 3.38476 1.82895 3.45104 1.65383C3.41006 1.65734 3.37084 1.66202 3.33397 1.66729C3.06353 1.70358 2.94763 1.76621 2.87154 1.8429C2.79544 1.91899 2.73281 2.03431 2.69593 2.30415L2.68305 2.42181ZM5.73041 3.38413C5.6916 3.38413 5.65438 3.39955 5.62693 3.427C5.59949 3.45444 5.58407 3.49166 5.58407 3.53047C5.58407 3.56928 5.59949 3.60651 5.62693 3.63395C5.65438 3.66139 5.6916 3.67681 5.73041 3.67681C5.76922 3.67681 5.80644 3.66139 5.83389 3.63395C5.86133 3.60651 5.87675 3.56928 5.87675 3.53047C5.87675 3.49166 5.86133 3.45444 5.83389 3.427C5.80644 3.39955 5.76922 3.38413 5.73041 3.38413ZM4.70604 3.53047C4.70604 3.25879 4.81396 2.99824 5.00607 2.80613C5.19817 2.61403 5.45873 2.5061 5.73041 2.5061C6.00209 2.5061 6.26264 2.61403 6.45475 2.80613C6.64685 2.99824 6.75478 3.25879 6.75478 3.53047C6.75478 3.80215 6.64685 4.06271 6.45475 4.25481C6.26264 4.44692 6.00209 4.55484 5.73041 4.55484C5.45873 4.55484 5.19817 4.44692 5.00607 4.25481C4.81396 4.06271 4.70604 3.80215 4.70604 3.53047ZM3.78937 7.89019C4.88164 7.67888 6.0506 7.72629 6.99712 8.29058C7.12941 8.3696 7.25467 8.46852 7.36296 8.59028C7.58306 8.83788 7.69661 9.14461 7.70188 9.45251C7.81369 9.38051 7.92607 9.30031 8.03963 9.21427L9.09795 8.41526C9.36293 8.22054 9.68316 8.11554 10.012 8.11554C10.3408 8.11554 10.661 8.22054 10.926 8.41526C11.4154 8.78403 11.6109 9.44724 11.2603 10.0092C11.0115 10.4078 10.6363 10.9598 10.2552 11.3133C9.86887 11.6704 9.32039 11.9713 8.90537 12.1715C8.4008 12.415 7.85642 12.5496 7.32667 12.6351C6.24376 12.8107 5.11754 12.7838 4.04751 12.5631C3.49571 12.4495 2.93384 12.3921 2.37047 12.3916H1.04757C0.931136 12.3916 0.819471 12.3453 0.737139 12.263C0.654808 12.1807 0.608555 12.069 0.608555 11.9526C0.608555 11.8361 0.654808 11.7245 0.737139 11.6421C0.819471 11.5598 0.931136 11.5135 1.04757 11.5135H2.37047C2.99212 11.5135 3.6202 11.5785 4.22488 11.7032C5.20017 11.9033 6.20363 11.9253 7.18677 11.7682C7.67144 11.6897 8.12451 11.5732 8.52372 11.3807C8.92352 11.1875 9.37307 10.9335 9.65814 10.6695C9.94672 10.402 10.2692 9.93894 10.5157 9.54441C10.59 9.42499 10.5795 9.25349 10.3974 9.11593C10.1809 8.95203 9.84311 8.95203 9.62711 9.11593L8.56938 9.91494C8.14675 10.234 7.62696 10.5752 6.98248 10.6782C6.91497 10.6889 6.84725 10.6983 6.77936 10.7063C6.36922 10.7537 5.95523 10.7576 5.54427 10.718C5.48585 10.714 5.42883 10.6983 5.37656 10.6719C5.32429 10.6455 5.27784 10.6089 5.23993 10.5643C5.20202 10.5197 5.17342 10.4679 5.15582 10.412C5.13822 10.3562 5.13196 10.2974 5.13743 10.2391C5.1429 10.1808 5.15997 10.1242 5.18765 10.0726C5.21533 10.021 5.25305 9.97541 5.2986 9.93861C5.34415 9.9018 5.39659 9.87448 5.45286 9.85825C5.50912 9.84202 5.56806 9.83721 5.62621 9.84411C5.95094 9.87565 6.27798 9.87506 6.60259 9.84235L6.62015 9.8406C6.67476 9.8067 6.72117 9.76111 6.75603 9.70711C6.79089 9.6531 6.81333 9.59204 6.82173 9.52831C6.83013 9.46459 6.82428 9.39979 6.8046 9.3386C6.78493 9.27741 6.75192 9.22135 6.70795 9.17446C6.66131 9.12311 6.60701 9.07928 6.54698 9.04451C5.85567 8.63184 4.93198 8.56335 3.9562 8.75184C3.0031 8.94358 2.09955 9.3291 1.30161 9.8845C1.25457 9.91786 1.20142 9.94163 1.14519 9.95445C1.08895 9.96727 1.03075 9.96888 0.973895 9.95921C0.917039 9.94953 0.862646 9.92875 0.813821 9.89806C0.764996 9.86736 0.722695 9.82735 0.689334 9.7803C0.655972 9.73326 0.632203 9.68011 0.619384 9.62388C0.606565 9.56765 0.604947 9.50944 0.614622 9.45258C0.624298 9.39573 0.645077 9.34134 0.675773 9.29251C0.70647 9.24369 0.746482 9.20139 0.793527 9.16802C1.6936 8.54051 2.71348 8.10549 3.78937 7.89019Z" fill="#858585"/>
</svg>
