<svg width="13" height="13" viewBox="0 0 13 13" fill="none" xmlns="http://www.w3.org/2000/svg">
<path d="M6.60742 6.41667L9.27409 3.75H3.94076L6.60742 6.41667ZM11.2741 0.750001C11.6408 0.750001 11.9548 0.880668 12.2161 1.142C12.4774 1.40333 12.6079 1.71711 12.6074 2.08333V11.4167C12.6074 11.7833 12.4768 12.0973 12.2154 12.3587C11.9541 12.62 11.6403 12.7504 11.2741 12.75H1.94076C1.57409 12.75 1.26009 12.6193 0.998756 12.358C0.737423 12.0967 0.606979 11.7829 0.607423 11.4167V2.08333C0.607423 1.71667 0.73809 1.40267 0.999423 1.14133C1.26076 0.880001 1.57453 0.749557 1.94076 0.750001H11.2741ZM1.94076 9.41667V11.4167H11.2741V9.41667H1.94076ZM11.2741 8.08333V2.08333H1.94076V8.08333H11.2741Z" fill="#858585"/>
</svg>
