<svg width="13" height="13" viewBox="0 0 13 13" fill="none" xmlns="http://www.w3.org/2000/svg">
<path d="M6.6084 6.41667L9.27506 3.75H3.94173L6.6084 6.41667ZM11.2751 0.750001C11.6417 0.750001 11.9557 0.880668 12.2171 1.142C12.4784 1.40333 12.6088 1.71711 12.6084 2.08333V11.4167C12.6084 11.7833 12.4777 12.0973 12.2164 12.3587C11.9551 12.62 11.6413 12.7504 11.2751 12.75H1.94173C1.57507 12.75 1.26107 12.6193 0.999733 12.358C0.738399 12.0967 0.607955 11.7829 0.6084 11.4167V2.08333C0.6084 1.71667 0.739066 1.40267 1.0004 1.14133C1.26173 0.880001 1.57551 0.749557 1.94173 0.750001H11.2751ZM1.94173 9.41667V11.4167H11.2751V9.41667H1.94173ZM11.2751 8.08333V2.08333H1.94173V8.08333H11.2751Z" fill="#8C10B8"/>
</svg>
