<svg width="63" height="23" viewBox="0 0 63 23" fill="none" xmlns="http://www.w3.org/2000/svg">
<path d="M2.27579 20.9093C1.63774 20.3403 1.12374 19.6291 0.78699 18.7914C0.450237 17.9537 0.237552 17.0687 0.184376 16.1046C0.0957598 14.4766 0.361617 13.0068 0.999675 11.6475C1.62001 10.3041 2.54165 9.07134 3.78231 7.96499C5.59015 6.35289 7.94742 5.00946 10.8541 3.96633C13.7608 2.92321 16.9688 2.14876 20.4604 1.65881C23.9875 1.16886 27.5677 0.915977 31.2365 0.900172C34.9054 0.915978 38.4856 1.16886 41.9772 1.65881C45.451 2.16457 48.6413 2.92321 51.4949 3.95053C54.3661 4.99366 56.7234 6.33708 58.5667 7.9808C59.7719 9.05553 60.7112 10.2725 61.3493 11.6001C62.0051 12.9436 62.3241 14.4292 62.2709 16.0571C62.2532 18.0644 61.562 19.6607 60.2504 20.8302C59.7542 21.2728 59.1515 21.6205 58.4958 21.8259C57.8223 22.0472 57.0956 22.1262 56.3157 21.9998L46.4081 20.4983C45.646 20.3877 45.0079 20.2296 44.4585 20.0242C43.9268 19.8345 43.466 19.5816 43.1292 19.2813C42.7038 18.902 42.4025 18.4121 42.243 17.8273C42.0658 17.2583 41.9772 16.5787 41.9772 15.8201L41.924 13.3703C41.924 13.0226 41.7822 12.7381 41.4986 12.4852C41.3568 12.3588 41.215 12.2639 41.0378 12.1691C40.8428 12.0901 40.6833 12.0427 40.5415 11.9795C39.6376 11.7424 38.3261 11.5527 36.6246 11.4263C34.9054 11.3156 33.1152 11.2366 31.2542 11.2208C29.3578 11.2366 27.5677 11.284 25.8308 11.4105C24.1293 11.5369 22.8354 11.7424 21.9138 11.9953C21.7897 12.0427 21.6302 12.0901 21.453 12.1533C21.258 12.2323 21.0985 12.343 20.939 12.4852C20.6377 12.7539 20.5136 13.0542 20.5136 13.4019L20.4959 15.7885C20.4959 16.5787 20.4073 17.2583 20.2123 17.8115C20.0528 18.3963 19.7692 18.8704 19.3261 19.2655C18.9894 19.5658 18.564 19.8187 18.0146 20.0242C17.4651 20.2296 16.827 20.3877 16.0826 20.5141L6.05096 22.0314C5.27112 22.1579 4.57989 22.1104 3.94183 21.8892C3.3215 21.6521 2.77206 21.3518 2.27579 20.9093Z" fill="white"/>
</svg>
