<svg width="12" height="13" viewBox="0 0 12 13" fill="none" xmlns="http://www.w3.org/2000/svg">
<path d="M1.14286 11.9286C0.828572 11.9286 0.559429 11.8166 0.335429 11.5926C0.111429 11.3686 -0.000379982 11.0996 9.70168e-07 10.7857V2.78572C9.70168e-07 2.47143 0.112001 2.20229 0.336001 1.97829C0.560001 1.75429 0.828953 1.64248 1.14286 1.64286H1.71429V1.07143C1.71429 0.909526 1.76914 0.773716 1.87886 0.664002C1.98857 0.554288 2.12419 0.499621 2.28572 0.500002C2.44762 0.500002 2.58343 0.554859 2.69314 0.664573C2.80286 0.774288 2.85752 0.909907 2.85714 1.07143V1.64286H7.42857V1.07143C7.42857 0.909526 7.48343 0.773716 7.59314 0.664002C7.70286 0.554288 7.83848 0.499621 8 0.500002C8.1619 0.500002 8.29771 0.554859 8.40743 0.664573C8.51714 0.774288 8.57181 0.909907 8.57143 1.07143V1.64286H9.14286C9.45714 1.64286 9.72628 1.75486 9.95028 1.97886C10.1743 2.20286 10.2861 2.47181 10.2857 2.78572V6.21429H9.14286V5.07143H1.14286V10.7857H5.14286V11.9286H1.14286ZM1.14286 3.92857H9.14286V2.78572H1.14286V3.92857ZM10.9286 9.07143L9.71428 7.85714L10.1286 7.44286C10.2333 7.3381 10.3667 7.28572 10.5286 7.28572C10.6905 7.28572 10.8238 7.3381 10.9286 7.44286L11.3429 7.85714C11.4476 7.96191 11.5 8.09524 11.5 8.25714C11.5 8.41905 11.4476 8.55238 11.3429 8.65714L10.9286 9.07143ZM6.28571 12.2143V11.5286C6.28571 11.4524 6.3 11.3785 6.32857 11.3069C6.35714 11.2352 6.4 11.171 6.45714 11.1143L9.31429 8.25714L10.5286 9.47143L7.67143 12.3286C7.61428 12.3857 7.5499 12.4286 7.47829 12.4571C7.40667 12.4857 7.33295 12.5 7.25714 12.5H6.57143C6.49524 12.5 6.42857 12.4714 6.37143 12.4143C6.31429 12.3571 6.28571 12.2905 6.28571 12.2143Z" fill="#8C10B8" fill-opacity="0.35"/>
</svg>
