<svg width="13" height="13" viewBox="0 0 13 13" fill="none" xmlns="http://www.w3.org/2000/svg">
<path d="M1.75126 12.1786C1.43697 12.1786 1.16783 12.0666 0.943828 11.8426C0.719828 11.6186 0.608018 11.3496 0.608399 11.0357V3.03572C0.608399 2.72143 0.720399 2.45229 0.944399 2.22829C1.1684 2.00429 1.43735 1.89248 1.75126 1.89286H2.32268V1.32143C2.32268 1.15953 2.37754 1.02372 2.48726 0.914002C2.59697 0.804288 2.73259 0.749621 2.89411 0.750002C3.05602 0.750002 3.19183 0.804859 3.30154 0.914573C3.41126 1.02429 3.46592 1.15991 3.46554 1.32143V1.89286H8.03697V1.32143C8.03697 1.15953 8.09183 1.02372 8.20154 0.914002C8.31126 0.804288 8.44687 0.749621 8.6084 0.750002C8.7703 0.750002 8.90611 0.804859 9.01583 0.914573C9.12554 1.02429 9.18021 1.15991 9.17983 1.32143V1.89286H9.75126C10.0655 1.89286 10.3347 2.00486 10.5587 2.22886C10.7827 2.45286 10.8945 2.72181 10.8941 3.03572V6.46429H9.75126V5.32143H1.75126V11.0357H5.75126V12.1786H1.75126ZM1.75126 4.17857H9.75126V3.03572H1.75126V4.17857ZM11.537 9.32143L10.3227 8.10714L10.737 7.69286C10.8417 7.5881 10.9751 7.53572 11.137 7.53572C11.2989 7.53572 11.4322 7.5881 11.537 7.69286L11.9513 8.10714C12.056 8.21191 12.1084 8.34524 12.1084 8.50714C12.1084 8.66905 12.056 8.80238 11.9513 8.90714L11.537 9.32143ZM6.89411 12.4643V11.7786C6.89411 11.7024 6.9084 11.6285 6.93697 11.5569C6.96554 11.4852 7.0084 11.421 7.06554 11.3643L9.92268 8.50714L11.137 9.72143L8.27983 12.5786C8.22268 12.6357 8.1583 12.6786 8.08668 12.7071C8.01506 12.7357 7.94135 12.75 7.86554 12.75H7.17983C7.10364 12.75 7.03697 12.7214 6.97983 12.6643C6.92268 12.6071 6.89411 12.5405 6.89411 12.4643Z" fill="#858585"/>
</svg>
